<?xml version="1.0" encoding="UTF-8" standalone="no"?>
<svg
   xmlns:dc="http://purl.org/dc/elements/1.1/"
   xmlns:cc="http://creativecommons.org/ns#"
   xmlns:rdf="http://www.w3.org/1999/02/22-rdf-syntax-ns#"
   xmlns:svg="http://www.w3.org/2000/svg"
   xmlns="http://www.w3.org/2000/svg"
   width="256pt"
   height="256pt"
   viewBox="0 0 256 256"
   version="1.1"
   id="svg9">
  <metadata
     id="metadata15">
    <rdf:RDF>
      <cc:Work
         rdf:about="">
        <dc:format>image/svg+xml</dc:format>
        <dc:type
           rdf:resource="http://purl.org/dc/dcmitype/StillImage" />
        <dc:title></dc:title>
      </cc:Work>
    </rdf:RDF>
  </metadata>
  <defs
     id="defs13" />
  <path
     style="fill:#e2e8e7;fill-opacity:1;fill-rule:nonzero;stroke:none"
     d="m 128.12891,-0.164062 c -34.421879,0 -66.050785,13.121093 -90.445316,37.523437 C 13.289062,61.765625 0.171875,93.40625 0.171875,127.84375 c 0,34.4375 13.117187,66.07812 37.511719,90.48047 20.484375,20.49219 46.089844,33.03125 75.062496,36.76172 11.37891,1.46875 28.82032,0.72265 41.25391,-1.75391 44.76172,-8.92187 83.00391,-43.60547 96.40625,-87.4375 14.0625,-45.98437 2.00391,-94.687499 -31.82813,-128.535155 C 194.18359,12.957031 162.55469,-0.164062 128.12891,-0.164062 Z M 126.96484,9.875 c 18.51953,-0.167969 37.02344,4.027344 53.89063,12.480469 23.11328,11.585937 41.14062,29.617187 52.72265,52.742187 16.64454,33.242184 16.64454,72.250004 0,105.488284 -5.80859,11.60156 -11.59765,19.7539 -20.8125,29.33203 -19.5039,20.26953 -45.32812,32.625 -74.04687,35.43359 -21.42187,2.09375 -43.527344,-2.10547 -63.3125,-12.01953 C 63.8125,227.51953 55.660156,221.73047 46.085938,212.51172 9.15625,176.94531 -0.355469,121.10156 22.683594,75.097656 36.53125,47.445312 60.320312,26.527344 89.457031,16.382812 101.61719,12.148438 114.29688,9.988281 126.96484,9.875 Z m 0,0"
     id="path2" />
  <path
     d="m 129.46555,197.70462 c -51.498,0 -96.980013,-64.40801 -98.892145,-67.15079 l -2.456987,-3.52613 2.456987,-3.52819 c 1.912132,-2.74073 47.394145,-67.148728 98.892145,-67.148728 47.4805,0 96.6778,64.216788 98.74825,66.951348 l 2.82296,3.72557 -2.8209,3.72557 c -2.07251,2.7325 -51.26981,66.95135 -98.75031,66.95135 z M 43.31067,127.02359 c 10.03973,13.12791 47.44758,58.3447 86.15488,58.3447 35.41762,0 74.93912,-44.93305 85.93902,-58.33854 -11.00812,-13.40342 -50.57075,-58.342633 -85.93902,-58.342633 -38.77104,0 -76.12749,45.206493 -86.15488,58.336473 z"
     id="path844"
     style="fill:#fc5652;fill-opacity:1;stroke-width:2.05606" />
  <path
     d="m 168.72388,127.0277 c 0,-21.68111 -17.57722,-39.258329 -39.25833,-39.258329 -21.6811,0 -39.25627,17.577219 -39.25627,39.258329 0,14.57949 7.96722,27.27564 19.76486,34.04623 v -57.83069 h 8.31058 v -4.486307 h 22.29381 v 4.486307 h 8.55114 v 57.72583 c 11.70307,-6.79526 19.59421,-19.43179 19.59421,-33.94137 z"
     id="path846"
     style="fill:#f6c574;fill-opacity:1;stroke-width:2.05606" />
  <rect
     x="118.26827"
     y="107.23817"
     width="9.1247759"
     height="11.112982"
     id="rect848"
     style="fill:#fc5652;fill-opacity:1;stroke-width:2.05606" />
  <rect
     x="131.43321"
     y="107.23817"
     width="9.1247759"
     height="11.112982"
     id="rect850"
     style="fill:#00b39f;fill-opacity:1;stroke-width:2.05606" />
  <rect
     x="118.26827"
     y="122.44473"
     width="9.1247759"
     height="11.112982"
     id="rect852"
     style="fill:#00b39f;fill-opacity:1;stroke-width:2.05606" />
  <rect
     x="131.43321"
     y="122.44473"
     width="9.1247759"
     height="11.112982"
     id="rect854"
     style="fill:#00abcd;fill-opacity:1;stroke-width:2.05606" />
  <rect
     x="118.28884"
     y="137.53207"
     width="9.1247759"
     height="11.115038"
     id="rect856"
     style="fill:#fc5652;fill-opacity:1;stroke-width:2.05606" />
  <rect
     x="131.45377"
     y="137.53207"
     width="9.1247759"
     height="11.115038"
     id="rect858"
     style="fill:#00abcd;fill-opacity:1;stroke-width:2.05606" />
  <rect
     x="123.36318"
     y="153.4747"
     width="12.379512"
     height="10.167196"
     id="rect860"
     style="fill:#e2e8e7;fill-opacity:1;stroke-width:2.05606" />
</svg>
