<?xml version="1.0" encoding="UTF-8"?>
<svg enable-background="new 0 0 100 100" version="1.1" viewBox="0 0 100 100" xml:space="preserve" xmlns="http://www.w3.org/2000/svg"><path d="m49.946 84.375c-25.047 0-47.168-31.326-48.098-32.66l-1.195-1.715 1.195-1.716c0.93-1.333 23.051-32.659 48.098-32.659 23.093 0 47.021 31.233 48.028 32.563l1.373 1.812-1.372 1.812c-1.008 1.329-24.936 32.563-48.029 32.563zm-41.903-34.377c4.883 6.385 23.077 28.377 41.903 28.377 17.226 0 36.448-21.854 41.798-28.374-5.354-6.519-24.596-28.376-41.798-28.376-18.857 0-37.026 21.987-41.903 28.373z"/><path d="m69.04 50c0-10.545-8.549-19.094-19.094-19.094s-19.093 8.549-19.093 19.094c0 7.091 3.875 13.266 9.613 16.559v-28.127h4.042v-2.182h10.843v2.182h4.159v28.076c5.692-3.305 9.53-9.451 9.53-16.508z"/><rect x="44.5" y="40.375" width="4.438" height="5.405"/><rect x="50.903" y="40.375" width="4.438" height="5.405"/><rect x="44.5" y="47.771" width="4.438" height="5.405"/><rect x="50.903" y="47.771" width="4.438" height="5.405"/><rect x="44.51" y="55.109" width="4.438" height="5.406"/><rect x="50.913" y="55.109" width="4.438" height="5.406"/><rect x="46.978" y="62.863" width="6.021" height="4.945"/><path d="m253.95 84.375c-25.047 0-47.168-31.326-48.098-32.66l-1.195-1.715 1.195-1.716c0.93-1.333 23.051-32.659 48.098-32.659 23.093 0 47.021 31.233 48.028 32.563l1.373 1.812-1.372 1.812c-1.008 1.329-24.936 32.563-48.029 32.563zm-41.903-34.377c4.883 6.385 23.077 28.377 41.903 28.377 17.226 0 36.448-21.854 41.798-28.374-5.354-6.519-24.596-28.376-41.798-28.376-18.857 0-37.026 21.987-41.903 28.373z"/><path d="m261.09 53.424v-0.256l-5.761-2.259v5.36l3.769 5.943v2.242l-5.458-3.801-5.457 3.801v-2.242l3.769-5.943v-5.36l-5.241 2.056v0.459c0 0.476-0.275 0.896-0.694 1.147v12.779c2.419 1.109 5.1 1.744 7.935 1.744 2.815 0 5.479-0.625 7.886-1.719v-12.776c-0.449-0.247-0.748-0.68-0.748-1.175z"/><path d="m273.04 50c0-10.545-8.549-19.094-19.094-19.094s-19.093 8.549-19.093 19.094c0 7.113 3.898 13.305 9.667 16.59v-11.881c-0.329-0.116-0.609-0.314-0.789-0.577l-3.38 1.325v-2.761l3.151-2.507v-2.119c0-0.77 0.833-1.984 1.602-1.984 0.698 0 1.355 0.866 1.544 1.601l5.3-4.217v-5.197c0-0.934 0.887-2.729 1.688-2.729 0.877 0 1.689 1.795 1.689 2.729v5.197l5.763 4.585c0.011-0.771 0.826-1.985 1.601-1.985 0.885 0 1.603 1.23 1.603 2.001v2.532l2.631 2.094v2.761l-2.984-1.171c-0.162 0.178-0.373 0.316-0.613 0.409v11.926c5.794-3.278 9.714-9.488 9.714-16.622z"/><path d="m343.05 50" fill="none" stroke="#fff" stroke-miterlimit="10"/><path d="m344.86 50" fill="none" stroke="#fff" stroke-miterlimit="10"/><path d="m355.95 84.375c-25.047 0-47.168-31.326-48.098-32.66l-1.195-1.715 1.195-1.716c0.93-1.333 23.051-32.659 48.098-32.659 23.093 0 47.021 31.233 48.028 32.563l1.374 1.812-1.373 1.812c-1.008 1.329-24.936 32.563-48.029 32.563zm-41.904-34.377c4.883 6.385 23.078 28.377 41.904 28.377 17.2 0 36.442-21.855 41.798-28.375-5.355-6.52-24.598-28.375-41.798-28.375-18.858 0-37.026 21.987-41.904 28.373z"/><path d="m375.04 50c0-10.545-8.549-19.094-19.095-19.094-10.545 0-19.094 8.549-19.094 19.094s8.549 19.094 19.094 19.094c1.511 0 2.974-0.195 4.384-0.525-0.35-1.971 0.498-4.475 3.039-6.008 3.805-2.295 4.203-3.801 4.197-4.344s-0.414-1.054-1.217-1.517c-1.775-1.025-4.367 1.835-6.877 4.599-2.361 2.6-4.591 5.055-6.98 5.516-1.606 0.311-2.873 0.018-3.772-0.867-0.991-0.975-1.235-2.418-1.257-3.518-0.523-0.211-1.021-0.51-1.458-0.912-0.048-0.035-0.096-0.074-0.146-0.119-1e-3 -4e-3 -2e-3 -2e-3 -3e-3 -2e-3 -0.114-0.107-0.234-0.234-0.367-0.367l-1.001-1.002c-0.44-0.439-0.44-1.16 0-1.6l4.604-4.604c0.44-0.441 1.161-0.442 1.601 0l1.001 1c0.134 0.137 0.213 0.299 0.265 0.469l10.276-10.276c-0.17-0.052-0.334-0.132-0.467-0.266l-1.002-1.001c-0.439-0.44-0.439-1.162 0-1.603l4.604-4.603c0.439-0.44 1.16-0.44 1.6 0l1.002 1.001c0.129 0.129 0.248 0.255 0.354 0.38l0.014-0.013c1.861 1.86 1.859 4.877 0 6.738l-15.745 15.745c-0.864 0.863-1.977 1.311-3.105 1.369 0.054 0.66 0.223 1.355 0.636 1.76 0.402 0.395 1.071 0.504 1.988 0.326 1.735-0.336 3.842-2.654 5.879-4.896 3.043-3.352 6.191-6.814 9.357-4.987 1.816 1.049 2.207 2.336 2.217 3.231 0.018 1.951-1.719 3.996-5.164 6.074-1.65 0.994-2.27 2.516-2.139 3.727 7.435-2.608 12.777-9.673 12.777-17.999z"/><path d="m559.95 84.375c-25.049 0-47.17-31.326-48.098-32.66l-1.197-1.715 1.197-1.716c0.928-1.333 23.049-32.659 48.098-32.659 23.092 0 47.02 31.233 48.027 32.563l1.374 1.812-1.373 1.812c-1.008 1.329-24.936 32.563-48.028 32.563zm-41.904-34.377c4.883 6.385 23.078 28.377 41.904 28.377 17.225 0 36.447-21.854 41.797-28.374-5.354-6.519-24.596-28.376-41.797-28.376-18.857 0-37.027 21.987-41.904 28.373z"/><path d="m566.83 50.09v-5.885h-14.455v5.911c3.197-1.45 7.229-3.179 7.229-3.179s4.029 1.708 7.226 3.153z"/><path d="m572.92 60.125c-1.355 0-2.459 1.104-2.459 2.459 0 0.369-0.438 0.807-0.807 0.807s-0.807-0.438-0.807-0.807c0-0.895-0.484-1.67-1.199-2.102-0.369-0.223-0.797-0.357-1.26-0.357-1.355 0-2.459 1.104-2.459 2.459 0 0.369-0.436 0.807-0.805 0.807s-0.807-0.438-0.807-0.807c0-1.355-1.104-2.459-2.459-2.459s-2.459 1.104-2.459 2.459c0 0.369-0.438 0.807-0.807 0.807s-0.805-0.438-0.805-0.807c0-1.355-1.104-2.459-2.459-2.459-0.678 0-1.293 0.275-1.738 0.721s-0.721 1.061-0.721 1.738c0 0.369-0.438 0.807-0.807 0.807s-0.807-0.438-0.807-0.807c0-1.355-1.104-2.459-2.459-2.459-1.012 0-1.881 0.615-2.258 1.49 0.428 0.551 0.881 1.08 1.365 1.58 0.053-0.197 0.088-0.398 0.088-0.611 0-0.369 0.436-0.807 0.805-0.807s0.807 0.438 0.807 0.807c0 1.355 1.104 2.459 2.459 2.459 0.965 0 1.793-0.564 2.195-1.375 0.164-0.328 0.264-0.693 0.264-1.084 0-0.369 0.438-0.807 0.807-0.807s0.805 0.438 0.805 0.807c0 1.355 1.104 2.459 2.459 2.459s2.459-1.104 2.459-2.459c0-0.369 0.438-0.807 0.807-0.807s0.807 0.438 0.807 0.807c0 1.355 1.104 2.459 2.459 2.459s2.459-1.104 2.459-2.459c0-0.369 0.436-0.807 0.805-0.807 0.352 0 0.75 0.393 0.791 0.748 2e-3 0.02 0.016 0.039 0.016 0.059 0 1.355 1.104 2.459 2.459 2.459s2.459-1.104 2.459-2.459c0-0.369 0.438-0.807 0.807-0.807s0.805 0.438 0.805 0.807c0 0.041 0.012 0.082 0.014 0.123 0.432-0.477 0.84-0.975 1.221-1.494-0.442-0.656-1.192-1.088-2.04-1.088z"/><path d="m572.92 60.125c-1.355 0-2.459 1.104-2.459 2.459 0 0.369-0.438 0.807-0.807 0.807s-0.807-0.438-0.807-0.807c0-0.895-0.484-1.67-1.199-2.102-0.369-0.223-0.797-0.357-1.26-0.357-1.355 0-2.459 1.104-2.459 2.459 0 0.369-0.436 0.807-0.805 0.807s-0.807-0.438-0.807-0.807c0-1.355-1.104-2.459-2.459-2.459s-2.459 1.104-2.459 2.459c0 0.369-0.438 0.807-0.807 0.807s-0.805-0.438-0.805-0.807c0-1.355-1.104-2.459-2.459-2.459-0.678 0-1.293 0.275-1.738 0.721s-0.721 1.061-0.721 1.738c0 0.369-0.438 0.807-0.807 0.807s-0.807-0.438-0.807-0.807c0-1.355-1.104-2.459-2.459-2.459-1.012 0-1.881 0.615-2.258 1.49 0.428 0.551 0.881 1.08 1.365 1.58 0.053-0.197 0.088-0.398 0.088-0.611 0-0.369 0.436-0.807 0.805-0.807s0.807 0.438 0.807 0.807c0 1.355 1.104 2.459 2.459 2.459 0.965 0 1.793-0.564 2.195-1.375 0.164-0.328 0.264-0.693 0.264-1.084 0-0.369 0.438-0.807 0.807-0.807s0.805 0.438 0.805 0.807c0 1.355 1.104 2.459 2.459 2.459s2.459-1.104 2.459-2.459c0-0.369 0.438-0.807 0.807-0.807s0.807 0.438 0.807 0.807c0 1.355 1.104 2.459 2.459 2.459s2.459-1.104 2.459-2.459c0-0.369 0.436-0.807 0.805-0.807 0.352 0 0.75 0.393 0.791 0.748 2e-3 0.02 0.016 0.039 0.016 0.059 0 1.355 1.104 2.459 2.459 2.459s2.459-1.104 2.459-2.459c0-0.369 0.438-0.807 0.807-0.807s0.805 0.438 0.805 0.807c0 0.041 0.012 0.082 0.014 0.123 0.432-0.477 0.84-0.975 1.221-1.494-0.442-0.656-1.192-1.088-2.04-1.088z" fill="none"/><path d="m546.8 59.125c1.508 0 2.791 0.967 3.266 2.314 0.168-0.484 0.447-0.928 0.82-1.301 0.127-0.127 0.27-0.234 0.412-0.338-0.623-2.137-1.506-4.707-2.77-7.755-0.039-0.091 0.949-0.59 2.346-1.241v-8.1h2.59v-1.704h12.273v1.705h2.592v8.072c1.404 0.656 2.395 1.164 2.346 1.269-1.266 2.675-2.133 5.205-2.754 7.454 0.082 0.041 0.166 0.078 0.244 0.127 0.711 0.428 1.229 1.068 1.49 1.814 0.473-1.348 1.758-2.316 3.266-2.316 1.021 0 1.963 0.469 2.617 1.24 1.982-3.007 3.156-6.589 3.156-10.459 0-10.545-8.549-19.094-19.094-19.094s-19.094 8.549-19.094 19.094c0 4.021 1.266 7.733 3.389 10.809 0.631-0.981 1.717-1.59 2.905-1.59z"/><path d="m661.95 84.375c-25.049 0-47.17-31.326-48.098-32.66l-1.197-1.715 1.197-1.716c0.928-1.333 23.049-32.659 48.098-32.659 23.092 0 47.02 31.233 48.027 32.563l1.374 1.812-1.373 1.812c-1.008 1.329-24.936 32.563-48.028 32.563zm-41.904-34.377c4.883 6.385 23.078 28.377 41.904 28.377 17.225 0 36.447-21.854 41.797-28.374-5.354-6.519-24.596-28.376-41.797-28.376-18.857 0-37.027 21.987-41.904 28.373z"/><path d="m656.54 43.264c0 2.641 1.904 4.842 4.41 5.312v-10.625c-2.506 0.471-4.41 2.672-4.41 5.313z"/><path d="m653.54 57.081c0-0.829 0.672-1.5 1.5-1.5s1.5 0.671 1.5 1.5c0 2.64 1.904 4.841 4.41 5.312v-10.786c-4.166-0.497-7.41-4.046-7.41-8.344s3.244-7.848 7.41-8.344v-3.748c0-0.11 0.029-0.213 0.062-0.312-10.107 0.492-18.156 8.818-18.156 19.047 0 10.207 8.016 18.52 18.094 19.043v-3.525c-4.166-0.496-7.41-4.045-7.41-8.343z"/><path d="m667.36 57.081c0-2.641-1.902-4.841-4.408-5.312v10.623c2.506-0.47 4.408-2.671 4.408-5.311z"/><path d="m681.04 49.906c0-10.229-8.051-18.555-18.158-19.047 0.035 0.1 0.064 0.202 0.064 0.312v3.748c4.166 0.496 7.408 4.046 7.408 8.344 0 0.828-0.672 1.5-1.5 1.5s-1.5-0.672-1.5-1.5c0-2.641-1.902-4.842-4.408-5.312v10.787c4.166 0.496 7.408 4.045 7.408 8.343s-3.242 7.847-7.408 8.343v3.525c10.076-0.523 18.094-8.836 18.094-19.043z"/><path d="m151.95 84.375c-25.047 0-47.168-31.326-48.098-32.66l-1.195-1.715 1.195-1.716c0.93-1.333 23.051-32.659 48.098-32.659 23.093 0 47.021 31.233 48.028 32.563l1.373 1.812-1.372 1.812c-1.008 1.329-24.936 32.563-48.029 32.563zm-41.903-34.377c4.883 6.385 23.077 28.377 41.903 28.377 17.226 0 36.448-21.854 41.798-28.374-5.354-6.519-24.596-28.376-41.798-28.376-18.857 0-37.026 21.987-41.903 28.373z"/><path d="m171.04 50c0-10.545-8.549-19.094-19.094-19.094s-19.093 8.549-19.093 19.094c0 7.224 4.014 13.508 9.931 16.752v-11.523h-3.274l12.059-14.47 4.632 5.229v-5.229h3.997v9.742l4.188 4.728h-3.274v11.523c5.914-3.244 9.928-9.528 9.928-16.752z"/><rect x="149.88" y="61.037" width="4.25" height="6.375"/><path d="m457.95 84.375c-25.049 0-47.17-31.326-48.098-32.66l-1.197-1.715 1.197-1.716c0.928-1.333 23.049-32.659 48.098-32.659 23.092 0 47.02 31.233 48.027 32.563l1.374 1.812-1.373 1.812c-1.008 1.329-24.936 32.563-48.028 32.563zm-41.904-34.377c4.883 6.385 23.078 28.377 41.904 28.377 17.225 0 36.447-21.854 41.797-28.374-5.354-6.519-24.596-28.376-41.797-28.376-18.857 0-37.027 21.987-41.904 28.373z"/><rect x="463.11" y="49.375" width=".055" height="1"/><rect x="451.33" y="49.375" width=".047" height="1"/><path d="m457.68 30.375c-0.658 0-1.309 0.033-1.947 0.098-0.045 0.689 0.096 1.26 0.232 1.386 0.824 0.706 1.908 1.16 3.311 1.386 1.525 0.246 3.252 0.524 4.537 1.844 1.018 1.044 1.941 2.759 1.479 4.443-0.217 0.799-0.809 1.468-1.58 1.788-0.723 0.301-1.52 0.256-2.184-0.123-0.785-0.447-1.057-1.159-1.273-1.73-0.098-0.254-0.189-0.493-0.316-0.707-0.232-0.391-0.689-0.798-1.115-0.824-0.312-0.022-0.637 0.182-0.957 0.596-1.008 1.306 0.021 3.84 0.031 3.864l-0.029 0.014c2.947 0.309 5.248 2.803 5.248 5.833v1.134h0.055v1h-0.055v8.133c0 3.24-2.627 5.867-5.867 5.867s-5.865-2.627-5.865-5.867v-8.133h-0.047v-1h0.047v-1.134c0-2.925 2.143-5.344 4.943-5.787-0.326-1.016-0.848-3.284 0.352-4.84 0.799-1.036 1.656-1.214 2.234-1.177 1.064 0.064 1.912 0.878 2.314 1.554 0.193 0.325 0.318 0.651 0.428 0.939 0.195 0.514 0.312 0.79 0.615 0.963 0.354 0.201 0.695 0.11 0.867 0.04 0.346-0.144 0.611-0.442 0.707-0.798 0.295-1.076-0.41-2.289-1.105-3.001-0.939-0.965-2.281-1.181-3.701-1.41-1.684-0.271-3.008-0.836-4.049-1.728-0.537-0.461-0.768-1.357-0.762-2.295-8.895 1.627-15.641 9.402-15.641 18.767 0 10.545 8.549 19.094 19.094 19.094s19.094-8.549 19.094-19.094-8.55-19.095-19.095-19.095z"/><polygon points="463.11 50.375 463.11 49.375 457.66 49.375 457.66 43.764 456.73 43.764 456.73 49.375 451.38 49.375 451.38 50.375"/></svg>